<svg xmlns="http://www.w3.org/2000/svg" viewBox="0 0 1200 52" preserveAspectRatio="none">
  <path fill="#fffdf7" d="M0 52V29 C16 31 24 24 38 27 C54 30 66 17 82 21 C96 25 105 12 121 18 C139 25 148 30 164 25 C182 19 191 7 207 15 C224 23 236 35 255 28 C272 22 284 11 300 17 C316 24 325 27 340 22 C357 17 366 6 382 13 C400 20 409 34 428 29 C446 24 458 14 475 19 C492 24 500 31 516 27 C534 22 542 8 560 14 C578 20 587 36 607 28 C625 21 636 15 652 20 C669 26 678 30 694 25 C710 20 719 10 735 16 C753 23 761 35 780 29 C798 23 809 12 826 18 C842 24 853 32 870 27 C887 21 896 7 913 15 C931 24 942 36 960 28 C977 21 989 14 1005 20 C1022 27 1032 32 1049 25 C1065 19 1074 9 1091 16 C1108 23 1118 34 1136 28 C1155 21 1167 17 1181 22 C1189 25 1195 27 1200 25 V52Z"/>
  <path fill="none" stroke="#d8d2c5" stroke-width="1" opacity=".65" d="M0 30 C62 35 95 13 155 25 S250 31 313 19 S410 31 472 21 S573 30 638 21 S738 31 802 20 S904 31 969 21 S1071 31 1200 25"/>
  <path fill="none" stroke="#ebe6dc" stroke-width="2" opacity=".65" d="M18 38 L72 32 M178 34 L225 29 M374 29 L421 35 M556 33 L605 37 M756 36 L803 32 M955 34 L1008 30 M1115 37 L1170 31"/>
</svg>
