<svg xmlns="http://www.w3.org/2000/svg" viewBox="0 0 1200 52" preserveAspectRatio="none">
  <path fill="#fffdf7" d="M0 0H1200V23 C1185 20 1173 32 1157 28 C1141 24 1132 38 1114 32 C1097 26 1089 18 1072 23 C1054 29 1046 41 1027 33 C1010 26 998 17 982 22 C965 27 956 36 939 31 C922 26 914 15 897 21 C880 27 871 40 852 33 C835 26 825 18 808 23 C790 29 782 37 764 31 C747 25 738 14 721 20 C703 27 695 40 676 33 C658 26 648 18 631 23 C614 28 605 36 588 31 C571 26 562 13 544 20 C526 27 518 39 499 32 C482 26 472 17 456 22 C438 28 430 37 412 31 C395 25 386 15 369 21 C351 28 343 40 324 32 C306 25 297 18 280 23 C263 29 254 37 236 31 C219 25 210 14 192 21 C174 28 166 39 148 32 C130 25 119 18 103 23 C85 29 76 37 59 31 C41 25 31 17 16 22 C9 24 4 25 0 24Z"/>
  <path fill="none" stroke="#d8d2c5" stroke-width="1" opacity=".65" d="M0 24 C57 17 95 34 151 31 S249 20 310 29 S409 21 469 29 S567 20 628 29 S728 20 790 29 S891 20 952 29 S1051 20 1113 31 S1168 19 1200 23"/>
  <path fill="none" stroke="#ebe6dc" stroke-width="2" opacity=".65" d="M25 15 L79 21 M183 18 L230 24 M372 20 L420 16 M558 18 L608 14 M751 17 L804 22 M944 19 L998 24 M1103 17 L1162 23"/>
</svg>
